# xmcd
#
# Track frame offsets: 
#        150
#        27750
#        51300
#        70725
#        85650
#        106425
#        117375
#        131775
#        145275
#        163500
#        180300
#        199575
#        211125
#        234600
#        247125
#        259200
#        269025
#        279225
#        287475
#        302400
#        311250
#
# Disc length: 4785 seconds
#
# Revision: 1
# Processed by: cddbd v1.5.2PL0 Copyright (c) Steve Scherf et al.
# Submitted via: ExactAudioCopy v1.0b1
#
DISCID=3012af15
DTITLE=Various Artist - Dansk Rock Historie 1965-1978 Gul Bonus Album
DYEAR=2010
DGENRE=Rock
TTITLE0=Skousen and Ingemann - Blæsten over søen
TTITLE1=Alrune Rod - Pigen på stranden
TTITLE2=Alrune Rod - Tæl aldrig imorgen med
TTITLE3=Alrune Rod - Himlen er blå
TTITLE4=Povl Dissing - Jeg tændte ingen sol for dig
TTITLE5=Povl Dissing - Jeg er så dejlig jeg ikke behøver pral
TTITLE6=Povl Dissing - Fabeldyret
TTITLE7=Povl Dissing - Gæt hvem der kysser dig nu?
TTITLE8=Povl Dissing and Burnin Red Ivanhoe - August Gyldenstjerne
TTITLE9=Povl Dissing and Burnin Red Ivanhoe - Hvem tør?
TTITLE10=Culpeper's Orchard, Sys Swarbrick, Birgitte and Mette - Troldpe
TTITLE10=jlet
TTITLE11=Culpeper's Orchard - Steamhouse
TTITLE12=Culpeper's Orchard - Raving
TTITLE13=Cy and Maia - Portland Town
TTITLE14=Cy and Maia - Chickens are a-Crowing
TTITLE15=Cy and Maia - Lonesome Valley
TTITLE16=Cy and Maia - This Sporting Life
TTITLE17=Cy and Maia - Take a Look Inside
TTITLE18=Cy, Maia and Robert - Green Rocky Road
TTITLE19=Cy, Maia and Robert - Harvest if Hate
TTITLE20=Burnin Red Ivanhoe - Ksiloy
EXTD=
EXTT0=
EXTT1=
EXTT2=
EXTT3=
EXTT4=
EXTT5=
EXTT6=
EXTT7=
EXTT8=
EXTT9=
EXTT10=
EXTT11=
EXTT12=
EXTT13=
EXTT14=
EXTT15=
EXTT16=
EXTT17=
EXTT18=
EXTT19=
EXTT20=
PLAYORDER=
